<svg id="Layer_1" data-name="Layer 1" xmlns="http://www.w3.org/2000/svg" viewBox="0 0 237.42 61"><defs><style>.cls-1{fill:#2a2d37;}.cls-2,.cls-5{fill:#f77116;}.cls-3,.cls-4{fill:#fff;}.cls-4{stroke:#fff;}.cls-4,.cls-5{stroke-miterlimit:10;stroke-width:2px;}.cls-5{stroke:#f77116;}</style></defs><title>lbs-logo-v2</title><rect class="cls-1" width="237.42" height="61"/><path class="cls-2" d="M87.28,48.9H82.66V37h4.47c2.07,0,3.51,1.18,3.51,3.17a2.71,2.71,0,0,1-1.75,2.6,2.88,2.88,0,0,1,1.93,2.82C90.82,47.77,89.39,48.9,87.28,48.9ZM87,38.15h-3.1v4.13H87c1.32,0,2.34-.65,2.34-2.07S88.35,38.15,87,38.15Zm.14,5.26H83.93v4.36h3.24a2.19,2.19,0,1,0,0-4.36Z" transform="translate(0.42 1)"/><path class="cls-2" d="M97.78,49a3.92,3.92,0,0,1-4.14-4V37h1.27v7.86a2.88,2.88,0,1,0,5.76,0V37h1.26v8A3.93,3.93,0,0,1,97.78,49Z" transform="translate(0.42 1)"/><path class="cls-2" d="M105.2,48.9V37h1.27V48.9Z" transform="translate(0.42 1)"/><path class="cls-2" d="M109.91,48.9V37h1.27V47.77h6.07V48.9Z" transform="translate(0.42 1)"/><path class="cls-2" d="M126.55,47.8a4.15,4.15,0,0,1-3,1.1h-4.07V37h4.07a4.15,4.15,0,0,1,3,1.1c1.23,1.24,1.16,3.05,1.16,4.71S127.78,46.56,126.55,47.8ZM125.66,39a3.11,3.11,0,0,0-2.33-.87h-2.59v9.62h2.59a3.11,3.11,0,0,0,2.33-.87c.82-.85.79-2.62.79-4.07S126.48,39.87,125.66,39Z" transform="translate(0.42 1)"/><path class="cls-2" d="M130.7,48.9V37H132V48.9Z" transform="translate(0.42 1)"/><path class="cls-2" d="M143,48.9l-6.31-9.53V48.9h-1.26V37h1.2l6.3,9.49V37h1.27V48.9Z" transform="translate(0.42 1)"/><path class="cls-2" d="M154.49,47.63a4.35,4.35,0,0,1-6.2.14c-1.12-1.12-1.12-2.29-1.12-4.81s0-3.69,1.12-4.81a4.2,4.2,0,0,1,3-1.23,4.05,4.05,0,0,1,4.16,3.55h-1.27a2.91,2.91,0,0,0-4.94-1.56c-.75.76-.83,1.56-.83,4.05s.08,3.3.83,4.07a2.89,2.89,0,0,0,2,.84,3,3,0,0,0,2.26-1,3.15,3.15,0,0,0,.66-2.15v-.91h-2.92V42.68h4.19v1.88A4.07,4.07,0,0,1,154.49,47.63Z" transform="translate(0.42 1)"/><path class="cls-2" d="M165.67,49a5.18,5.18,0,0,1-4.07-1.57l.87-.87a4.06,4.06,0,0,0,3.24,1.31c1.73,0,2.8-.82,2.8-2.21a1.89,1.89,0,0,0-.57-1.48,2.48,2.48,0,0,0-1.55-.57L165,43.39a4.33,4.33,0,0,1-2.18-.9,2.81,2.81,0,0,1-.9-2.22c0-2,1.45-3.35,3.8-3.35a4.77,4.77,0,0,1,3.54,1.3l-.82.82a3.73,3.73,0,0,0-2.77-1,2.2,2.2,0,0,0-2.5,2.2,1.74,1.74,0,0,0,.53,1.37,3.42,3.42,0,0,0,1.61.65l1.3.2a3.83,3.83,0,0,1,2.17.84,3,3,0,0,1,1,2.35C169.78,47.72,168.14,49,165.67,49Z" transform="translate(0.42 1)"/><path class="cls-2" d="M172.43,48.9V37h7.37v1.13h-6.1v4.19h5.2v1.14h-5.2v4.29h6.1V48.9Z" transform="translate(0.42 1)"/><path class="cls-2" d="M189.27,48.9l-2.71-5.27h-2.85V48.9h-1.27V37H187a3.21,3.21,0,0,1,3.52,3.3,3.08,3.08,0,0,1-2.59,3.19l2.82,5.39Zm-2.39-10.75h-3.17v4.36h3.17a2.19,2.19,0,1,0,0-4.36Z" transform="translate(0.42 1)"/><path class="cls-2" d="M196.74,48.9h-1L191.8,37h1.34l3.08,9.61L199.31,37h1.33Z" transform="translate(0.42 1)"/><path class="cls-2" d="M202.5,48.9V37h1.27V48.9Z" transform="translate(0.42 1)"/><path class="cls-2" d="M210.91,49a4.24,4.24,0,0,1-3-1.23c-1.12-1.12-1.12-2.29-1.12-4.81s0-3.69,1.12-4.81a4.24,4.24,0,0,1,3-1.23A4,4,0,0,1,215,40.46h-1.3a2.82,2.82,0,0,0-2.82-2.41,2.89,2.89,0,0,0-2.06.84c-.75.77-.83,1.58-.83,4.07s.08,3.3.83,4.07a2.89,2.89,0,0,0,2.06.84,2.85,2.85,0,0,0,2.85-2.41H215A4,4,0,0,1,210.91,49Z" transform="translate(0.42 1)"/><path class="cls-2" d="M217.83,48.9V37h7.38v1.13H219.1v4.19h5.21v1.14H219.1v4.29h6.11V48.9Z" transform="translate(0.42 1)"/><path class="cls-2" d="M230.9,49a5.19,5.19,0,0,1-4.08-1.57l.87-.87a4.08,4.08,0,0,0,3.24,1.31c1.73,0,2.8-.82,2.8-2.21a1.89,1.89,0,0,0-.57-1.48,2.48,2.48,0,0,0-1.55-.57l-1.38-.22a4.33,4.33,0,0,1-2.19-.9,2.81,2.81,0,0,1-.9-2.22c0-2,1.45-3.35,3.81-3.35a4.74,4.74,0,0,1,3.53,1.3l-.81.82a3.75,3.75,0,0,0-2.77-1c-1.59,0-2.51.89-2.51,2.2a1.71,1.71,0,0,0,.54,1.37,3.34,3.34,0,0,0,1.6.65l1.3.2a3.8,3.8,0,0,1,2.17.84,3,3,0,0,1,1,2.35C235,47.72,233.37,49,230.9,49Z" transform="translate(0.42 1)"/><path class="cls-3" d="M82.45,32.5V15.39h2.6V30.17h8.24V32.5Z" transform="translate(0.42 1)"/><path class="cls-3" d="M96.25,32.5V15.39h2.59V32.5Z" transform="translate(0.42 1)"/><path class="cls-3" d="M113.81,32.5l-7.91-12v12h-2.59V15.39h2.38l7.9,12v-12h2.6V32.5Z" transform="translate(0.42 1)"/><path class="cls-3" d="M132.8,25.73a14.3,14.3,0,0,1-.15,1.87,7.49,7.49,0,0,1-.51,1.75,4.78,4.78,0,0,1-1.06,1.54,5,5,0,0,1-1.94,1.21,7.29,7.29,0,0,1-2.48.4h-6V15.39h6a7.54,7.54,0,0,1,2.48.4,5.22,5.22,0,0,1,3,2.71,7,7,0,0,1,.51,1.69A13.09,13.09,0,0,1,132.8,22c0,.61,0,1.22,0,1.85S132.81,25.08,132.8,25.73Zm-2.7-4.89a3.36,3.36,0,0,0-.79-2,3.77,3.77,0,0,0-2.91-1.16h-3.15V30.17h3.15A3.76,3.76,0,0,0,129.31,29a3.54,3.54,0,0,0,.79-2.08c.08-.89.12-1.93.12-3.11S130.18,21.64,130.1,20.84Z" transform="translate(0.42 1)"/><path class="cls-3" d="M146.89,29.74a4.42,4.42,0,0,1-1.27,1.58,5.6,5.6,0,0,1-2,1,8.73,8.73,0,0,1-2.47.34,10.16,10.16,0,0,1-3.39-.51,7.06,7.06,0,0,1-2.67-1.75l1.73-1.71a5.15,5.15,0,0,0,2,1.29,7.64,7.64,0,0,0,2.38.34,4.26,4.26,0,0,0,2.6-.68,2.57,2.57,0,0,0,.26-3.71,2.37,2.37,0,0,0-.72-.46,6,6,0,0,0-1.16-.26l-2-.29A5.76,5.76,0,0,1,137,23.54a4.3,4.3,0,0,1-1.25-3.27,5,5,0,0,1,.4-2,4.53,4.53,0,0,1,1.13-1.6,4.92,4.92,0,0,1,1.79-1,7.38,7.38,0,0,1,2.4-.36,8.52,8.52,0,0,1,3,.46,6.9,6.9,0,0,1,2.35,1.49l-1.66,1.63a4.29,4.29,0,0,0-1.72-1,7.06,7.06,0,0,0-2-.27,3.29,3.29,0,0,0-2.32.75,2.52,2.52,0,0,0-.81,1.91,2.42,2.42,0,0,0,.16.88,2,2,0,0,0,.49.71,3.61,3.61,0,0,0,1.93.79l1.94.29a8.83,8.83,0,0,1,1.92.49,4.51,4.51,0,0,1,1.28.79,3.9,3.9,0,0,1,1,1.51,5.47,5.47,0,0,1,.35,2A4.72,4.72,0,0,1,146.89,29.74Z" transform="translate(0.42 1)"/><path class="cls-3" d="M162.49,26.17a12.11,12.11,0,0,1-.17,1.81,6.14,6.14,0,0,1-.48,1.52,5.28,5.28,0,0,1-1,1.32,6.37,6.37,0,0,1-2,1.36,6.86,6.86,0,0,1-5,0,6.4,6.4,0,0,1-2-1.36,4.82,4.82,0,0,1-1-1.32,6.16,6.16,0,0,1-.5-1.52,12,12,0,0,1-.18-1.81c0-.67,0-1.41,0-2.22s0-1.56,0-2.23a12.18,12.18,0,0,1,.18-1.81,6.09,6.09,0,0,1,.5-1.51,4.54,4.54,0,0,1,1-1.32,6.08,6.08,0,0,1,2-1.36,6.86,6.86,0,0,1,5,0,6.05,6.05,0,0,1,2,1.36,4.94,4.94,0,0,1,1,1.32,6.06,6.06,0,0,1,.48,1.51,12.24,12.24,0,0,1,.17,1.81c0,.67,0,1.41,0,2.23S162.5,25.5,162.49,26.17Zm-2.61-4.37a10.64,10.64,0,0,0-.14-1.45,3.65,3.65,0,0,0-.31-1,3.35,3.35,0,0,0-.52-.73,3.44,3.44,0,0,0-1.12-.77,3.67,3.67,0,0,0-2.86,0,3.44,3.44,0,0,0-1.12.77,3.17,3.17,0,0,0-.82,1.71,10.47,10.47,0,0,0-.15,1.45c0,.57,0,1.28,0,2.15s0,1.58,0,2.15a10.15,10.15,0,0,0,.15,1.44,3.33,3.33,0,0,0,.31,1,3.37,3.37,0,0,0,.51.74,3.58,3.58,0,0,0,5.1,0,3.41,3.41,0,0,0,.52-.74,3.65,3.65,0,0,0,.31-1,10.31,10.31,0,0,0,.14-1.44c0-.57,0-1.29,0-2.15S159.91,22.37,159.88,21.8Z" transform="translate(0.42 1)"/><path class="cls-3" d="M176.86,32.5l-7.91-12v12h-2.59V15.39h2.38l7.9,12v-12h2.6V32.5Z" transform="translate(0.42 1)"/><path class="cls-4" d="M33.74,11.67H43.9l28.33,37H58.67L38.82,21.74,19,48.66H5.17Z" transform="translate(0.42 1)"/><path class="cls-5" d="M38.06,13.15h9.75L75,48.66H62L42.94,22.83,23.88,48.66H10.64Z" transform="translate(0.42 1)"/></svg>